M48
;GenerationSoftware,Autodesk,EAGLE,9.7.0*%
;CreationDate,2021-09-18T00:01:10Z*%
FMAT,2
ICI,OFF
METRIC,TZ,000.000
T10C0.350
T9C0.600
T8C0.900
T7C1.016
T6C1.422
T5C1.600
T4C3.000
T3C3.251
T2C4.572
T1C6.985
%
G90
M71
T1
X9525Y9525
X234950Y90805
X403225Y90805
X9525Y90805
X403225Y9525
T2
X351790Y9525
X303276Y8890
X255270Y9525
X206756Y9525
X158750Y9525
X111125Y9525
X63500Y9525
T3
X179070Y7620
X234315Y7620
X245745Y7620
X215900Y7620
X227330Y7620
X282575Y7620
X294005Y7620
X264160Y7620
X275590Y7620
X330200Y7620
X24130Y7620
X311785Y7620
X323215Y7620
X379095Y7620
X390525Y7620
X360680Y7620
X372110Y7620
X42545Y7620
X53975Y7620
X90805Y7620
X102235Y7620
X167640Y7620
X197485Y7620
X186055Y7620
X130810Y7620
X119380Y7620
X149225Y7620
X137795Y7620
X83820Y7620
X72390Y7620
X341630Y7620
X35560Y7620
T4
X109220Y94930
T5
X104395Y10570
X85980Y10570
X88645Y10570
X56135Y10570
X40385Y10570
X343790Y10570
X328040Y10570
X374270Y10570
X358520Y10570
X392685Y10570
X376935Y10570
X325375Y10570
X309625Y10570
X21970Y10570
X37720Y10570
X277750Y10570
X262000Y10570
X135635Y10570
X151385Y10570
X70230Y10570
X229490Y10570
X213740Y10570
X117220Y10570
X132970Y10570
X183895Y10570
X296165Y10570
X280415Y10570
X199645Y10570
X165480Y10570
X181230Y10570
X232155Y10570
X247905Y10570
T6
X109220Y82118
X109220Y87630
T7
X142240Y90805
X139700Y90805
X137160Y90805
X142240Y98425
X134620Y98425
X154940Y90805
X157480Y90805
X160020Y90805
X162560Y90805
X162560Y98425
X205740Y90805
X134620Y90805
X144780Y98425
X165100Y90805
X167640Y90805
X170180Y90805
X172720Y90805
X172720Y98425
X165100Y98425
X185420Y90805
X187960Y90805
X152400Y98425
X152400Y90805
X190500Y90805
X193040Y90805
X193040Y98425
X185420Y98425
X195580Y90805
X198120Y90805
X200660Y90805
X203200Y90805
X149860Y90805
X147320Y90805
X203200Y98425
X195580Y98425
X175260Y90805
X177800Y90805
X180340Y90805
X182880Y90805
X182880Y98425
X175260Y98425
X144780Y90805
X124460Y98425
X208280Y90805
X210820Y90805
X213360Y90805
X213360Y98425
X205740Y98425
X132080Y98425
X132080Y90805
X129540Y90805
X127000Y90805
X124460Y90805
X154940Y98425
T8
X146685Y13970
X313055Y13970
X139065Y13970
X144145Y13970
X140335Y16510
X141605Y13970
X142875Y16510
X147955Y16510
X124460Y16510
X82550Y16510
X81280Y13970
X80010Y16510
X73660Y13970
X78740Y13970
X74930Y16510
X76200Y13970
X77470Y16510
X123190Y13970
X121920Y16510
X125730Y13970
X120650Y13970
X127000Y16510
X128270Y13970
X129540Y16510
X318135Y13970
X191135Y16510
X189865Y13970
X188595Y16510
X192405Y13970
X187325Y13970
X193675Y16510
X194945Y13970
X196215Y16510
X172720Y16510
X17780Y21590
X171450Y13970
X170180Y16510
X65405Y21590
X173990Y13970
X168910Y13970
X175260Y16510
X176530Y13970
X177800Y16510
X114300Y21590
X239395Y16510
X238125Y13970
X236855Y16510
X240665Y13970
X235585Y13970
X241935Y16510
X243205Y13970
X244475Y16510
X161290Y20955
X220980Y16510
X219710Y13970
X210185Y20955
X218440Y16510
X222250Y13970
X217170Y13970
X223520Y16510
X224790Y13970
X258445Y20955
X226060Y16510
X287655Y16510
X286385Y13970
X285115Y16510
X288925Y13970
X305435Y19685
X283845Y13970
X290195Y16510
X291465Y13970
X292735Y16510
X269240Y16510
X267970Y13970
X266700Y16510
X270510Y13970
X265430Y13970
X271780Y16510
X273050Y13970
X274320Y16510
X335280Y16510
X334010Y13970
X34290Y16510
X33020Y13970
X31750Y16510
X25400Y13970
X30480Y13970
X26670Y16510
X27940Y13970
X29210Y16510
X319405Y16510
X320675Y13970
X354965Y21590
X321945Y16510
X332740Y16510
X336550Y13970
X384175Y16510
X382905Y13970
X381635Y16510
X385445Y13970
X380365Y13970
X386715Y16510
X387985Y13970
X389255Y16510
X331470Y13970
X337820Y16510
X365760Y16510
X364490Y13970
X363220Y16510
X367030Y13970
X361950Y13970
X368300Y16510
X369570Y13970
X370840Y16510
X339090Y13970
X340360Y16510
X47625Y16510
X46355Y13970
X45085Y16510
X48895Y13970
X43815Y13970
X50165Y16510
X51435Y13970
X52705Y16510
X316865Y16510
X315595Y13970
X95885Y16510
X94615Y13970
X93345Y16510
X97155Y13970
X92075Y13970
X98425Y16510
X99695Y13970
X100965Y16510
X314325Y16510
X145415Y16510
T9
X149860Y67945
X182626Y57277
X356235Y54102
X361315Y33274
X361188Y57404
X164592Y58547
X178054Y51943
X311150Y48133
X164084Y43942
X163703Y48768
X312420Y43942
X176403Y51816
X260731Y48514
X162179Y48768
X162306Y42926
X264795Y42926
X175006Y51816
X175006Y46609
X214122Y46482
X214690Y33782
X160782Y48768
X215265Y47625
X215900Y33909
X167894Y48768
X167495Y33764
X159258Y48768
X163703Y36957
X120650Y48768
X120710Y33274
X174487Y62071
X122174Y48768
X121920Y33274
X160020Y68326
X68453Y42672
X161544Y62371
X70231Y44831
X170180Y68326
X177419Y64135
X22860Y61341
X162560Y63738
X380365Y34925
X387985Y34925
X370205Y36830
X362585Y36830
X391795Y20320
X387985Y19685
X340360Y19685
X290830Y19050
X243840Y19685
X196215Y19050
X148590Y19685
X100965Y19685
X52705Y19685
X138430Y39370
X139827Y48768
X385445Y39370
X337820Y39370
X288290Y39370
X50165Y37338
X98425Y39370
X146050Y39370
X241300Y39370
X193675Y39370
X340360Y34290
X332740Y34290
X343535Y20320
X313690Y36830
X321310Y36830
X295275Y20955
X283210Y34290
X290830Y34290
X273050Y36830
X266065Y36830
X236220Y34544
X243840Y34544
X247015Y20955
X224790Y37211
X217170Y37211
X188761Y37211
X196381Y37211
X199390Y20955
X179793Y36195
X171792Y36195
X124968Y36195
X131953Y36449
X140970Y35560
X148590Y35560
X151130Y20701
X104140Y21590
X100965Y34925
X93345Y34925
X83781Y35560
X76669Y35560
X36322Y35560
X28536Y35560
X52705Y34925
X55880Y20955
X45085Y34925
X300355Y21590
X250190Y24130
X201930Y24130
X153670Y24130
X106680Y25400
X58420Y25400
X9398Y25400
X346583Y24003
X187960Y68707
X182753Y65405
X168656Y65405
X192151Y65405
X185420Y65405
X181356Y66421
X167640Y66421
X193802Y66421
X196088Y67310
X166370Y67310
X180213Y67310
X203454Y67310
X175260Y73279
X143383Y73279
X144272Y66675
X163576Y68326
X141859Y68707
X142494Y56698
X163830Y56642
X143637Y28448
X144907Y48768
X367665Y28448
X318770Y28448
X128270Y28448
X175260Y28448
X222250Y28448
X270510Y28448
X79375Y28448
X31750Y28448
X199390Y55880
X189230Y55880
X142367Y38100
X142367Y48768
X99822Y38100
X242570Y38100
X386715Y38100
X339090Y38100
X289560Y38100
X53213Y38100
X147320Y38100
X195072Y38100
X106680Y71120
X182118Y52451
X167767Y52578
X155956Y61341
X170307Y61214
X189230Y62230
X185420Y62230
X375285Y27305
X382905Y27305
X391160Y31496
X383540Y31496
X390525Y19685
X367030Y34925
X365125Y31115
X357505Y31115
X359410Y34925
X343535Y31623
X335915Y31623
X342265Y19685
X316230Y31115
X308610Y31115
X316865Y34925
X324485Y34925
X260985Y31115
X267970Y31115
X294005Y19685
X294005Y31623
X286385Y31623
X285750Y27305
X278130Y27305
X276225Y34925
X269240Y34925
X245745Y19685
X239395Y31496
X247015Y31496
X238760Y27305
X231140Y27305
X221615Y35560
X213995Y35560
X219710Y31115
X212090Y31115
X191770Y35560
X199390Y35560
X198120Y19685
X191135Y27305
X183515Y27305
X174625Y36195
X172720Y31115
X167005Y36195
X165100Y31115
X149860Y19304
X102870Y19685
X54610Y19685
X151638Y31369
X143510Y27178
X135890Y27305
X144272Y31369
X125730Y31115
X126492Y36195
X119888Y36195
X118110Y31115
X104775Y31496
X97155Y31496
X95885Y27305
X88265Y27305
X76835Y31115
X78105Y35560
X69215Y31115
X71120Y35560
X29210Y30480
X31115Y35560
X21590Y30480
X47625Y27305
X40005Y27305
X55880Y31115
X48895Y31115
X103886Y24892
X295402Y24638
X200533Y52959
X153670Y55118
X25019Y37338
X177546Y68834
X127000Y68580
X137160Y68580
X147320Y68453
X157480Y68326
X167640Y68453
X197993Y68580
X208280Y68199
X153035Y29972
X147447Y48768
X372110Y29972
X322580Y29972
X83185Y29972
X132080Y29972
X179705Y29972
X226060Y29972
X274320Y29972
X36195Y29972
X132017Y68517
X132207Y58293
X177673Y57531
X172085Y61214
X157734Y61341
X197358Y54864
X180340Y68580
X153670Y53467
X124460Y68834
X134620Y68580
X210820Y67310
X200660Y68580
X190500Y68580
T10
X21318Y63355
X176276Y56515
X-14859Y65659
M30