G04 EAGLE Gerber RS-274X export*
G75*
%MOMM*%
%FSLAX34Y34*%
%LPD*%
%INCopper Layer 2*%
%IPPOS*%
%AMOC8*
5,1,8,0,0,1.08239X$1,22.5*%
G01*
G04 Define Apertures*
%ADD10C,1.408000*%
%ADD11C,2.400000*%
%ADD12C,1.524000*%
%ADD13C,2.133600*%
%ADD14C,1.006400*%
%ADD15C,0.406400*%
%ADD16C,0.304800*%
%ADD17C,1.350000*%
%ADD18C,0.756400*%
D10*
X292100Y165100D03*
X279400Y139700D03*
X266700Y165100D03*
X304800Y139700D03*
X254000Y139700D03*
X317500Y165100D03*
X330200Y139700D03*
X342900Y165100D03*
D11*
X219700Y105700D03*
X377200Y105700D03*
D12*
X1244600Y908050D03*
X1270000Y908050D03*
X1295400Y908050D03*
X1320800Y908050D03*
X1320800Y984250D03*
X1244600Y984250D03*
X1447800Y908050D03*
X1473200Y908050D03*
X1498600Y908050D03*
X1524000Y908050D03*
X1524000Y984250D03*
X1447800Y984250D03*
X1346200Y908050D03*
X1371600Y908050D03*
X1397000Y908050D03*
X1422400Y908050D03*
X1422400Y984250D03*
X1346200Y984250D03*
X1549400Y908050D03*
X1574800Y908050D03*
X1600200Y908050D03*
X1625600Y908050D03*
X1625600Y984250D03*
X1549400Y984250D03*
X1651000Y908050D03*
X1676400Y908050D03*
X1701800Y908050D03*
X1727200Y908050D03*
X1727200Y984250D03*
X1651000Y984250D03*
X1854200Y908050D03*
X1879600Y908050D03*
X1905000Y908050D03*
X1930400Y908050D03*
X1930400Y984250D03*
X1854200Y984250D03*
X1955800Y908050D03*
X1981200Y908050D03*
X2006600Y908050D03*
X2032000Y908050D03*
X2032000Y984250D03*
X1955800Y984250D03*
X1752600Y908050D03*
X1778000Y908050D03*
X1803400Y908050D03*
X1828800Y908050D03*
X1828800Y984250D03*
X1752600Y984250D03*
X2057400Y908050D03*
X2082800Y908050D03*
X2108200Y908050D03*
X2133600Y908050D03*
X2133600Y984250D03*
X2057400Y984250D03*
D13*
X1092200Y821182D03*
X1092200Y876300D03*
D10*
X774700Y165100D03*
X762000Y139700D03*
X749300Y165100D03*
X787400Y139700D03*
X736600Y139700D03*
X800100Y165100D03*
X812800Y139700D03*
X825500Y165100D03*
D11*
X702300Y105700D03*
X859800Y105700D03*
D10*
X1428750Y165100D03*
X1416050Y139700D03*
X1403350Y165100D03*
X1441450Y139700D03*
X1390650Y139700D03*
X1454150Y165100D03*
X1466850Y139700D03*
X1479550Y165100D03*
D11*
X1356350Y105700D03*
X1513850Y105700D03*
D10*
X1244600Y165100D03*
X1231900Y139700D03*
X1219200Y165100D03*
X1257300Y139700D03*
X1206500Y139700D03*
X1270000Y165100D03*
X1282700Y139700D03*
X1295400Y165100D03*
D11*
X1172200Y105700D03*
X1329700Y105700D03*
D10*
X1911350Y165100D03*
X1898650Y139700D03*
X1885950Y165100D03*
X1924050Y139700D03*
X1873250Y139700D03*
X1936750Y165100D03*
X1949450Y139700D03*
X1962150Y165100D03*
D11*
X1838950Y105700D03*
X1996450Y105700D03*
D10*
X1727200Y165100D03*
X1714500Y139700D03*
X1701800Y165100D03*
X1739900Y139700D03*
X1689100Y139700D03*
X1752600Y165100D03*
X1765300Y139700D03*
X1778000Y165100D03*
D11*
X1654800Y105700D03*
X1812300Y105700D03*
D10*
X2393950Y165100D03*
X2381250Y139700D03*
X2368550Y165100D03*
X2406650Y139700D03*
X2355850Y139700D03*
X2419350Y165100D03*
X2432050Y139700D03*
X2444750Y165100D03*
D11*
X2321550Y105700D03*
X2479050Y105700D03*
D10*
X2209800Y165100D03*
X2197100Y139700D03*
X2184400Y165100D03*
X2222500Y139700D03*
X2171700Y139700D03*
X2235200Y165100D03*
X2247900Y139700D03*
X2260600Y165100D03*
D11*
X2137400Y105700D03*
X2294900Y105700D03*
D10*
X2876550Y165100D03*
X2863850Y139700D03*
X2851150Y165100D03*
X2889250Y139700D03*
X2838450Y139700D03*
X2901950Y165100D03*
X2914650Y139700D03*
X2927350Y165100D03*
D11*
X2804150Y105700D03*
X2961650Y105700D03*
D10*
X2692400Y165100D03*
X2679700Y139700D03*
X2667000Y165100D03*
X2705100Y139700D03*
X2654300Y139700D03*
X2717800Y165100D03*
X2730500Y139700D03*
X2743200Y165100D03*
D11*
X2620000Y105700D03*
X2777500Y105700D03*
D10*
X3352800Y165100D03*
X3340100Y139700D03*
X3327400Y165100D03*
X3365500Y139700D03*
X3314700Y139700D03*
X3378200Y165100D03*
X3390900Y139700D03*
X3403600Y165100D03*
D11*
X3280400Y105700D03*
X3437900Y105700D03*
D10*
X3168650Y165100D03*
X3155950Y139700D03*
X3143250Y165100D03*
X3181350Y139700D03*
X3130550Y139700D03*
X3194050Y165100D03*
X3206750Y139700D03*
X3219450Y165100D03*
D11*
X3096250Y105700D03*
X3253750Y105700D03*
D10*
X3841750Y165100D03*
X3829050Y139700D03*
X3816350Y165100D03*
X3854450Y139700D03*
X3803650Y139700D03*
X3867150Y165100D03*
X3879850Y139700D03*
X3892550Y165100D03*
D11*
X3769350Y105700D03*
X3926850Y105700D03*
D10*
X3657600Y165100D03*
X3644900Y139700D03*
X3632200Y165100D03*
X3670300Y139700D03*
X3619500Y139700D03*
X3683000Y165100D03*
X3695700Y139700D03*
X3708400Y165100D03*
D11*
X3585200Y105700D03*
X3742700Y105700D03*
D10*
X476250Y165100D03*
X463550Y139700D03*
X450850Y165100D03*
X488950Y139700D03*
X438150Y139700D03*
X501650Y165100D03*
X514350Y139700D03*
X527050Y165100D03*
D11*
X403850Y105700D03*
X561350Y105700D03*
D10*
X958850Y165100D03*
X946150Y139700D03*
X933450Y165100D03*
X971550Y139700D03*
X920750Y139700D03*
X984250Y165100D03*
X996950Y139700D03*
X1009650Y165100D03*
D11*
X886450Y105700D03*
X1043950Y105700D03*
D14*
X1498600Y679450D03*
X1600200Y683260D03*
X1701800Y683260D03*
X1905000Y685800D03*
X2006600Y685800D03*
X2108200Y673100D03*
X1346200Y685800D03*
X1244600Y688340D03*
X1536700Y534670D03*
X1803400Y685800D03*
X1973580Y548640D03*
X1577340Y613410D03*
X1720850Y612140D03*
X1776730Y575310D03*
D15*
X1329690Y575310D01*
X1322070Y582930D01*
D14*
X1322070Y582930D03*
X1320165Y685165D03*
X361950Y299720D03*
D15*
X831850Y299720D01*
X1320800Y299720D01*
X1530350Y299720D01*
X1797050Y299720D01*
X2260600Y299720D01*
X2743200Y299720D01*
D14*
X2743200Y299720D03*
X2260600Y299720D03*
X1797050Y299720D03*
X1320800Y299720D03*
X831850Y299720D03*
D15*
X2743200Y299720D02*
X3225800Y299720D01*
X3721100Y299720D01*
D14*
X3225800Y299720D03*
X3721100Y299720D03*
X1474470Y487680D03*
X1530350Y299720D03*
X2082800Y681990D03*
X1979930Y685800D03*
X1676400Y684530D03*
X1574800Y683260D03*
X1473200Y684530D03*
X1371600Y685800D03*
X1270000Y685800D03*
X1775460Y688340D03*
X250190Y373380D03*
X1536700Y551180D03*
X2005330Y529590D03*
X2954020Y246380D03*
X1038860Y248920D03*
X488950Y311150D03*
X558800Y311150D03*
X400050Y273050D03*
X476250Y273050D03*
X215900Y304800D03*
X311150Y355600D03*
X292100Y304800D03*
X711200Y355600D03*
X692150Y311150D03*
X781050Y355600D03*
X768350Y311150D03*
X882650Y273050D03*
X958850Y273050D03*
X971550Y314960D03*
X1047750Y314960D03*
X1181100Y311150D03*
X1198880Y361950D03*
X1264920Y361950D03*
X1257300Y311150D03*
X1442720Y313690D03*
X1358900Y273050D03*
X1435100Y271780D03*
X1516380Y313690D03*
X546100Y196850D03*
X1028700Y196850D03*
X1498600Y193040D03*
X1651000Y311150D03*
X1670050Y361950D03*
X1727200Y311150D03*
X1746250Y361950D03*
X1835150Y273050D03*
X1911350Y273050D03*
X1981200Y196850D03*
X1993900Y355600D03*
X1917700Y355600D03*
X2120900Y311150D03*
X2197100Y311150D03*
X2139950Y355600D03*
X2216150Y355600D03*
X2311400Y273050D03*
X2387600Y273050D03*
X2470150Y314960D03*
X2393950Y314960D03*
X2457450Y196850D03*
X2692400Y349250D03*
X2762250Y349250D03*
X2781300Y273050D03*
X2857500Y273050D03*
X2863850Y316230D03*
X2940050Y316230D03*
X2940050Y196850D03*
X2679700Y311150D03*
X2609850Y311150D03*
X3244850Y349250D03*
X3168650Y349250D03*
X3086100Y311150D03*
X3162300Y311150D03*
X3422650Y196850D03*
X3359150Y316230D03*
X3435350Y316230D03*
X3594100Y349250D03*
X3575050Y311150D03*
X3651250Y311150D03*
X3670300Y349250D03*
X3905250Y196850D03*
X3835400Y314960D03*
X3911600Y314960D03*
X3829050Y273050D03*
X3752850Y273050D03*
X1854200Y622300D03*
X1892300Y622300D03*
X1703070Y612140D03*
X1559560Y613410D03*
X1677670Y525780D03*
X1821180Y524510D03*
X1066800Y711200D03*
D15*
X998220Y381000D02*
X532130Y381000D01*
X998220Y381000D02*
X1423670Y381000D01*
X1473200Y381000D01*
X1950720Y381000D02*
X2425700Y381000D01*
X1950720Y381000D02*
X1473200Y381000D01*
D14*
X1950720Y381000D03*
X1473200Y381000D03*
X532130Y381000D03*
X2895600Y381000D03*
D15*
X3390900Y381000D01*
X3867150Y381000D01*
D14*
X3390900Y381000D03*
X3867150Y381000D03*
D15*
X2895600Y381000D02*
X2425700Y381000D01*
D14*
X2425700Y381000D03*
X998220Y381000D03*
X1423670Y487680D03*
X1423670Y381000D03*
X1892300Y558800D03*
D15*
X1993900Y558800D01*
D14*
X1993900Y558800D03*
X317500Y284480D03*
D16*
X793750Y284480D01*
X1282700Y284480D01*
X1436370Y284480D01*
X1752600Y284480D01*
X2222500Y284480D01*
X2705100Y284480D01*
D14*
X793750Y284480D03*
X2705100Y284480D03*
X2222500Y284480D03*
X1752600Y284480D03*
X1282700Y284480D03*
D15*
X2705100Y284480D02*
X3187700Y284480D01*
X3676650Y284480D01*
D14*
X3187700Y284480D03*
X3676650Y284480D03*
X1449070Y487680D03*
X1436370Y284480D03*
X1638300Y566420D03*
D15*
X1424940Y566976D01*
D14*
X1424940Y566976D03*
X1418590Y687070D03*
X1635760Y683260D03*
X1442720Y666750D03*
D15*
X1619250Y666750D01*
X1635760Y683260D01*
D14*
X1433830Y732790D03*
X1752600Y732790D03*
D15*
X1433830Y732790D01*
D14*
X2034540Y673100D03*
D15*
X1960880Y673100D01*
D14*
X1802130Y673100D03*
D15*
X1960880Y673100D01*
X1802130Y673100D02*
X1663700Y673100D01*
D14*
X1663700Y673100D03*
X1960880Y673100D03*
X1938020Y664210D03*
D15*
X1813560Y664210D01*
D14*
X1676400Y664210D03*
D15*
X1813560Y664210D01*
D14*
X1813560Y664210D03*
X1854200Y654050D03*
D15*
X1921510Y654050D01*
D14*
X1921510Y654050D03*
D15*
X1854200Y654050D02*
X1827530Y654050D01*
X1686560Y654050D01*
D14*
X1686560Y654050D03*
X1827530Y654050D03*
X1879600Y687070D03*
X3465830Y240030D03*
X93980Y254000D03*
X584200Y254000D03*
X1066800Y254000D03*
X1536700Y241300D03*
X2019300Y241300D03*
X2501900Y241300D03*
X3003550Y215900D03*
X450850Y349250D03*
X558800Y209550D03*
X527050Y349250D03*
D17*
X177800Y215900D03*
D14*
X285360Y355600D03*
X363220Y355600D03*
D17*
X654050Y215900D03*
D14*
X766690Y355600D03*
X837810Y355600D03*
X933450Y349250D03*
X1009650Y349250D03*
X1041400Y215900D03*
D17*
X1143000Y215900D03*
D14*
X1511300Y207010D03*
X1485900Y355600D03*
X1409700Y355600D03*
X1319530Y364490D03*
X1249680Y361950D03*
X1717920Y361950D03*
X1797930Y361950D03*
X1993900Y209550D03*
D17*
X1612900Y209550D03*
D14*
X1963810Y372110D03*
X1887610Y372110D03*
D17*
X2101850Y209550D03*
D14*
X2171700Y372110D03*
X2247900Y372110D03*
X2470150Y209550D03*
X2438400Y345440D03*
X2362200Y345440D03*
D17*
X2584450Y209550D03*
D14*
X2660650Y368300D03*
X2730500Y368300D03*
X2908300Y342900D03*
X2832100Y342900D03*
X2952750Y209550D03*
D17*
X3054350Y196850D03*
D14*
X3213100Y368300D03*
X3136900Y368300D03*
X3435350Y203200D03*
X3327400Y342900D03*
X3403600Y342900D03*
X1936750Y393700D03*
X2413000Y393700D03*
X1460500Y393700D03*
X984250Y393700D03*
X501650Y373380D03*
X2882900Y393700D03*
D15*
X3378200Y393700D02*
X3854450Y393700D01*
D14*
X3378200Y393700D03*
X3854450Y393700D03*
D15*
X3378200Y393700D02*
X2882900Y393700D01*
X2413000Y393700D01*
X521970Y393700D02*
X501650Y373380D01*
D14*
X1398270Y487680D03*
X1384300Y393700D03*
D15*
X984250Y393700D02*
X521970Y393700D01*
X1936750Y393700D02*
X2413000Y393700D01*
X1936750Y393700D02*
X1460500Y393700D01*
X1384300Y393700D01*
X984250Y393700D01*
D14*
X527050Y196850D03*
D15*
X476250Y196850D01*
X476250Y165100D01*
D14*
X1009650Y196850D03*
D15*
X958850Y196850D02*
X958850Y165100D01*
X958850Y196850D02*
X1009650Y196850D01*
D14*
X1485900Y196850D03*
D15*
X1428750Y196850D02*
X1428750Y165100D01*
X1428750Y196850D02*
X1485900Y196850D01*
D14*
X1962150Y190500D03*
D15*
X1911350Y190500D02*
X1911350Y165100D01*
X1911350Y190500D02*
X1962150Y190500D01*
D14*
X2438400Y196850D03*
D15*
X2393950Y196850D02*
X2393950Y165100D01*
X2393950Y196850D02*
X2438400Y196850D01*
D14*
X2908300Y190500D03*
D15*
X2876550Y190500D02*
X2876550Y165100D01*
X2876550Y190500D02*
X2908300Y190500D01*
D14*
X3403600Y196850D03*
D15*
X3352800Y196850D02*
X3352800Y165100D01*
X3352800Y196850D02*
X3403600Y196850D01*
D14*
X3879850Y196850D03*
D15*
X3841750Y196850D02*
X3841750Y165100D01*
X3841750Y196850D02*
X3879850Y196850D01*
D14*
X3917950Y203200D03*
D17*
X3549650Y215900D03*
D14*
X3625850Y368300D03*
X3702050Y368300D03*
X3879850Y349250D03*
X3803650Y349250D03*
X1625600Y637382D03*
D15*
X252572Y637382D01*
X228600Y613410D01*
D14*
X228600Y613410D03*
X1774190Y641350D03*
D15*
X1769824Y645716D01*
X1419860Y645716D01*
X1402742Y662834D01*
D18*
X213182Y633552D03*
D15*
X242464Y662834D01*
X1402742Y662834D01*
D14*
X702310Y448310D03*
X1615440Y623714D03*
D15*
X877714Y623714D02*
X702310Y448310D01*
X877714Y623714D02*
X1615440Y623714D01*
D14*
X684530Y426720D03*
D15*
X1461770Y426720D01*
X1577340Y542290D02*
X1739900Y542290D01*
X1762760Y565150D01*
D18*
X1762760Y565150D03*
D15*
X1577340Y542290D02*
X1461770Y426720D01*
D14*
X1219200Y332740D03*
X1221740Y487680D03*
X1744872Y620714D03*
D15*
X1624226Y620714D01*
X1608588Y605076D01*
X1232456Y605076D01*
D14*
X1207104Y332740D03*
D15*
X1206500Y579120D02*
X1232456Y605076D01*
D14*
X1206500Y487680D03*
D15*
X1206500Y579120D01*
D14*
X1637030Y369570D03*
X1592580Y487680D03*
X1674952Y337642D03*
X1678940Y487680D03*
X2159000Y339090D03*
X2152650Y476250D03*
X1607820Y487680D03*
D15*
X1619250Y476250D01*
X2152650Y476250D01*
D14*
X2146904Y337820D03*
X2141220Y464820D03*
D15*
X1751330Y464820D01*
X1750060Y466090D01*
D14*
X1750060Y466090D03*
X1750060Y518160D03*
X2647950Y429260D03*
X1623060Y429260D03*
X1621790Y487680D03*
D15*
X1623060Y429260D02*
X2647950Y429260D01*
D14*
X2607310Y485140D03*
D15*
X1797050Y485140D01*
X1764030Y518160D01*
D14*
X1764030Y518160D03*
X3124200Y439420D03*
X1637030Y487680D03*
X1640840Y439420D03*
D15*
X3124200Y439420D01*
D14*
X3111500Y481330D03*
X1780540Y519430D03*
D15*
X1783794Y516176D01*
X3111500Y495300D02*
X3111500Y481330D01*
X3090624Y516176D02*
X1783794Y516176D01*
X3090624Y516176D02*
X3111500Y495300D01*
D14*
X1645920Y585470D03*
D15*
X3600450Y585470D01*
X3611880Y574040D01*
D14*
X3611880Y574040D03*
X3613150Y332740D03*
X3562350Y541020D03*
X1826260Y572770D03*
D15*
X1977032Y532686D02*
X1985366Y541020D01*
X1977032Y532686D02*
X1866344Y532686D01*
X1826260Y572770D01*
X1985366Y541020D02*
X3562350Y541020D01*
D18*
X-148590Y656590D03*
M02*
