G04 EAGLE Gerber RS-274X export*
G75*
%MOMM*%
%FSLAX34Y34*%
%LPD*%
%INSolderpaste Top*%
%IPPOS*%
%AMOC8*
5,1,8,0,0,1.08239X$1,22.5*%
G01*
G04 Define Apertures*
%ADD10R,1.100000X1.000000*%
%ADD11R,1.200000X0.800000*%
%ADD12R,1.300000X1.500000*%
%ADD13R,1.600000X1.800000*%
%ADD14R,0.660400X2.032000*%
%ADD15R,1.000000X1.100000*%
%ADD16R,5.400000X6.200000*%
%ADD17R,1.000000X1.600000*%
%ADD18R,6.200000X5.400000*%
%ADD19R,1.600000X1.000000*%
%ADD20R,0.950000X0.900000*%
%ADD21R,1.200000X1.200000*%
%ADD22R,1.500000X1.300000*%
%ADD23R,1.800000X1.600000*%
D10*
X266310Y355600D03*
X249310Y355600D03*
D11*
X1244600Y771000D03*
X1244600Y753000D03*
D12*
X1247800Y850900D03*
X1266800Y850900D03*
D13*
X1243300Y711200D03*
X1271300Y711200D03*
X1243300Y812800D03*
X1271300Y812800D03*
D12*
X1298600Y850900D03*
X1317600Y850900D03*
D11*
X1498600Y771000D03*
X1498600Y753000D03*
D12*
X1495400Y850900D03*
X1476400Y850900D03*
D13*
X1499900Y711200D03*
X1471900Y711200D03*
X1499900Y812800D03*
X1471900Y812800D03*
D10*
X1972700Y529590D03*
X1989700Y529590D03*
X452510Y317500D03*
X469510Y317500D03*
D12*
X276250Y207010D03*
X295250Y207010D03*
X231800Y207010D03*
X250800Y207010D03*
D11*
X1346200Y771000D03*
X1346200Y753000D03*
D12*
X1349400Y850900D03*
X1368400Y850900D03*
D13*
X1344900Y711200D03*
X1372900Y711200D03*
X1344900Y812800D03*
X1372900Y812800D03*
D12*
X1400200Y850900D03*
X1419200Y850900D03*
D11*
X1600200Y771000D03*
X1600200Y753000D03*
D12*
X1597000Y850900D03*
X1578000Y850900D03*
D13*
X1601500Y711200D03*
X1573500Y711200D03*
X1601500Y812800D03*
X1573500Y812800D03*
D11*
X1701800Y771000D03*
X1701800Y753000D03*
D12*
X1698600Y850900D03*
X1679600Y850900D03*
D13*
X1703100Y711200D03*
X1675100Y711200D03*
X1703100Y812800D03*
X1675100Y812800D03*
D11*
X1905000Y771000D03*
X1905000Y753000D03*
D12*
X1901800Y850900D03*
X1882800Y850900D03*
D13*
X1906300Y711200D03*
X1878300Y711200D03*
X1906300Y812800D03*
X1878300Y812800D03*
D11*
X2006600Y771000D03*
X2006600Y753000D03*
D12*
X2003400Y850900D03*
X1984400Y850900D03*
D13*
X2007900Y711200D03*
X1979900Y711200D03*
X2007900Y812800D03*
X1979900Y812800D03*
D11*
X1803400Y771000D03*
X1803400Y753000D03*
D12*
X1800200Y850900D03*
X1781200Y850900D03*
D13*
X1804700Y711200D03*
X1776700Y711200D03*
X1804700Y812800D03*
X1776700Y812800D03*
D11*
X2108200Y771000D03*
X2108200Y753000D03*
D12*
X2105000Y850900D03*
X2086000Y850900D03*
D13*
X2109500Y711200D03*
X2081500Y711200D03*
X2109500Y812800D03*
X2081500Y812800D03*
D10*
X936380Y317500D03*
X953380Y317500D03*
X1012580Y317500D03*
X1029580Y317500D03*
D12*
X701700Y209550D03*
X720700Y209550D03*
X746150Y209550D03*
X765150Y209550D03*
D10*
X1412630Y317500D03*
X1429630Y317500D03*
X1228970Y361950D03*
X1211970Y361950D03*
D12*
X1197000Y209550D03*
X1216000Y209550D03*
X1241450Y209550D03*
X1260450Y209550D03*
D10*
X1778880Y361950D03*
X1761880Y361950D03*
X1963810Y355600D03*
X1980810Y355600D03*
D12*
X1666900Y209550D03*
X1685900Y209550D03*
X1711350Y209550D03*
X1730350Y209550D03*
D10*
X2247510Y355600D03*
X2230510Y355600D03*
X2362590Y317500D03*
X2379590Y317500D03*
D12*
X2136800Y209550D03*
X2155800Y209550D03*
X2181250Y209550D03*
X2200250Y209550D03*
D10*
X2730890Y349250D03*
X2747890Y349250D03*
X2832490Y317500D03*
X2849490Y317500D03*
D12*
X2625750Y209550D03*
X2644750Y209550D03*
X2670200Y209550D03*
X2689200Y209550D03*
D10*
X3213490Y349250D03*
X3230490Y349250D03*
X3327790Y317500D03*
X3344790Y317500D03*
D12*
X3102000Y209550D03*
X3121000Y209550D03*
X3146450Y209550D03*
X3165450Y209550D03*
D10*
X3704200Y349250D03*
X3687200Y349250D03*
X3804040Y317500D03*
X3821040Y317500D03*
D12*
X3584600Y209550D03*
X3603600Y209550D03*
X3629050Y209550D03*
X3648050Y209550D03*
D14*
X1499870Y635762D03*
X1487170Y635762D03*
X1474470Y635762D03*
X1461770Y635762D03*
X1449070Y635762D03*
X1436370Y635762D03*
X1423670Y635762D03*
X1410970Y635762D03*
X1410970Y535178D03*
X1423670Y535178D03*
X1436370Y535178D03*
X1449070Y535178D03*
X1461770Y535178D03*
X1474470Y535178D03*
X1487170Y535178D03*
X1499870Y535178D03*
X1398270Y635762D03*
X1385570Y635762D03*
X1398270Y535178D03*
X1385570Y535178D03*
D15*
X1518920Y532520D03*
X1518920Y549520D03*
D16*
X152400Y355200D03*
D17*
X129600Y282200D03*
X175200Y282200D03*
D12*
X187300Y254000D03*
X168300Y254000D03*
X117500Y254000D03*
X136500Y254000D03*
D16*
X635000Y355200D03*
D17*
X612200Y282200D03*
X657800Y282200D03*
D12*
X669900Y254000D03*
X650900Y254000D03*
X600100Y254000D03*
X619100Y254000D03*
D16*
X1117600Y355200D03*
D17*
X1094800Y282200D03*
X1140400Y282200D03*
D12*
X1152500Y254000D03*
X1133500Y254000D03*
X1082700Y254000D03*
X1101700Y254000D03*
D16*
X1587500Y355200D03*
D17*
X1564700Y282200D03*
X1610300Y282200D03*
D12*
X1622400Y241300D03*
X1603400Y241300D03*
X1552600Y241300D03*
X1571600Y241300D03*
D16*
X2070100Y355200D03*
D17*
X2047300Y282200D03*
X2092900Y282200D03*
D12*
X2105000Y241300D03*
X2086000Y241300D03*
X2035200Y241300D03*
X2054200Y241300D03*
D16*
X2552700Y355200D03*
D17*
X2529900Y282200D03*
X2575500Y282200D03*
D12*
X2587600Y241300D03*
X2568600Y241300D03*
X2517800Y241300D03*
X2536800Y241300D03*
D16*
X3035300Y355200D03*
D17*
X3012500Y282200D03*
X3058100Y282200D03*
D12*
X3070200Y241300D03*
X3051200Y241300D03*
X3000400Y241300D03*
X3019400Y241300D03*
D16*
X3520440Y355200D03*
D17*
X3497640Y282200D03*
X3543240Y282200D03*
D12*
X3555340Y241300D03*
X3536340Y241300D03*
X3485540Y241300D03*
X3504540Y241300D03*
D18*
X1183240Y726440D03*
D19*
X1110240Y749240D03*
X1110240Y703640D03*
D10*
X524900Y317500D03*
X541900Y317500D03*
D14*
X450850Y278384D03*
X450850Y216916D03*
X438150Y278384D03*
X425450Y278384D03*
X438150Y216916D03*
X425450Y216916D03*
X412750Y278384D03*
X412750Y216916D03*
X527050Y278384D03*
X527050Y216916D03*
X514350Y278384D03*
X501650Y278384D03*
X514350Y216916D03*
X501650Y216916D03*
X488950Y278384D03*
X488950Y216916D03*
X342900Y303784D03*
X342900Y242316D03*
X330200Y303784D03*
X317500Y303784D03*
X330200Y242316D03*
X317500Y242316D03*
X304800Y303784D03*
X304800Y242316D03*
X266700Y303784D03*
X266700Y242316D03*
X254000Y303784D03*
X241300Y303784D03*
X254000Y242316D03*
X241300Y242316D03*
X228600Y303784D03*
X228600Y242316D03*
D10*
X343780Y355600D03*
X326780Y355600D03*
D14*
X933450Y278384D03*
X933450Y216916D03*
X920750Y278384D03*
X908050Y278384D03*
X920750Y216916D03*
X908050Y216916D03*
X895350Y278384D03*
X895350Y216916D03*
X1009650Y278384D03*
X1009650Y216916D03*
X996950Y278384D03*
X984250Y278384D03*
X996950Y216916D03*
X984250Y216916D03*
X971550Y278384D03*
X971550Y216916D03*
X819150Y303784D03*
X819150Y242316D03*
X806450Y303784D03*
X793750Y303784D03*
X806450Y242316D03*
X793750Y242316D03*
X781050Y303784D03*
X781050Y242316D03*
X742950Y303784D03*
X742950Y242316D03*
X730250Y303784D03*
X717550Y303784D03*
X730250Y242316D03*
X717550Y242316D03*
X704850Y303784D03*
X704850Y242316D03*
D10*
X745100Y355600D03*
X728100Y355600D03*
X814950Y355600D03*
X797950Y355600D03*
D14*
X1409700Y278384D03*
X1409700Y216916D03*
X1397000Y278384D03*
X1384300Y278384D03*
X1397000Y216916D03*
X1384300Y216916D03*
X1371600Y278384D03*
X1371600Y216916D03*
X1485900Y278384D03*
X1485900Y216916D03*
X1473200Y278384D03*
X1460500Y278384D03*
X1473200Y216916D03*
X1460500Y216916D03*
X1447800Y278384D03*
X1447800Y216916D03*
X1308100Y303784D03*
X1308100Y242316D03*
X1295400Y303784D03*
X1282700Y303784D03*
X1295400Y242316D03*
X1282700Y242316D03*
X1270000Y303784D03*
X1270000Y242316D03*
X1231900Y303784D03*
X1231900Y242316D03*
X1219200Y303784D03*
X1206500Y303784D03*
X1219200Y242316D03*
X1206500Y242316D03*
X1193800Y303784D03*
X1193800Y242316D03*
D10*
X1297550Y361950D03*
X1280550Y361950D03*
X1486290Y317500D03*
X1503290Y317500D03*
D14*
X1885950Y278384D03*
X1885950Y216916D03*
X1873250Y278384D03*
X1860550Y278384D03*
X1873250Y216916D03*
X1860550Y216916D03*
X1847850Y278384D03*
X1847850Y216916D03*
X1962150Y278384D03*
X1962150Y216916D03*
X1949450Y278384D03*
X1936750Y278384D03*
X1949450Y216916D03*
X1936750Y216916D03*
X1924050Y278384D03*
X1924050Y216916D03*
X1778000Y303784D03*
X1778000Y242316D03*
X1765300Y303784D03*
X1752600Y303784D03*
X1765300Y242316D03*
X1752600Y242316D03*
X1739900Y303784D03*
X1739900Y242316D03*
X1701800Y303784D03*
X1701800Y242316D03*
X1689100Y303784D03*
X1676400Y303784D03*
X1689100Y242316D03*
X1676400Y242316D03*
X1663700Y303784D03*
X1663700Y242316D03*
D10*
X1702680Y361950D03*
X1685680Y361950D03*
X1887610Y355600D03*
X1904610Y355600D03*
X2438790Y317500D03*
X2455790Y317500D03*
X2171310Y355600D03*
X2154310Y355600D03*
D14*
X2362200Y278384D03*
X2362200Y216916D03*
X2349500Y278384D03*
X2336800Y278384D03*
X2349500Y216916D03*
X2336800Y216916D03*
X2324100Y278384D03*
X2324100Y216916D03*
X2438400Y278384D03*
X2438400Y216916D03*
X2425700Y278384D03*
X2413000Y278384D03*
X2425700Y216916D03*
X2413000Y216916D03*
X2400300Y278384D03*
X2400300Y216916D03*
X2247900Y310134D03*
X2247900Y248666D03*
X2235200Y310134D03*
X2222500Y310134D03*
X2235200Y248666D03*
X2222500Y248666D03*
X2209800Y310134D03*
X2209800Y248666D03*
X2171700Y303784D03*
X2171700Y242316D03*
X2159000Y303784D03*
X2146300Y303784D03*
X2159000Y242316D03*
X2146300Y242316D03*
X2133600Y303784D03*
X2133600Y242316D03*
D10*
X2908690Y317500D03*
X2925690Y317500D03*
X2661040Y349250D03*
X2678040Y349250D03*
D14*
X2832100Y278384D03*
X2832100Y216916D03*
X2819400Y278384D03*
X2806700Y278384D03*
X2819400Y216916D03*
X2806700Y216916D03*
X2794000Y278384D03*
X2794000Y216916D03*
X2908300Y278384D03*
X2908300Y216916D03*
X2895600Y278384D03*
X2882900Y278384D03*
X2895600Y216916D03*
X2882900Y216916D03*
X2870200Y278384D03*
X2870200Y216916D03*
X2730500Y303784D03*
X2730500Y242316D03*
X2717800Y303784D03*
X2705100Y303784D03*
X2717800Y242316D03*
X2705100Y242316D03*
X2692400Y303784D03*
X2692400Y242316D03*
X2660650Y303784D03*
X2660650Y242316D03*
X2647950Y303784D03*
X2635250Y303784D03*
X2647950Y242316D03*
X2635250Y242316D03*
X2622550Y303784D03*
X2622550Y242316D03*
D10*
X3403990Y317500D03*
X3420990Y317500D03*
X3137290Y349250D03*
X3154290Y349250D03*
D14*
X3327400Y278384D03*
X3327400Y216916D03*
X3314700Y278384D03*
X3302000Y278384D03*
X3314700Y216916D03*
X3302000Y216916D03*
X3289300Y278384D03*
X3289300Y216916D03*
X3403600Y278384D03*
X3403600Y216916D03*
X3390900Y278384D03*
X3378200Y278384D03*
X3390900Y216916D03*
X3378200Y216916D03*
X3365500Y278384D03*
X3365500Y216916D03*
X3213100Y303784D03*
X3213100Y242316D03*
X3200400Y303784D03*
X3187700Y303784D03*
X3200400Y242316D03*
X3187700Y242316D03*
X3175000Y303784D03*
X3175000Y242316D03*
X3136900Y303784D03*
X3136900Y242316D03*
X3124200Y303784D03*
X3111500Y303784D03*
X3124200Y242316D03*
X3111500Y242316D03*
X3098800Y303784D03*
X3098800Y242316D03*
D10*
X3880240Y317500D03*
X3897240Y317500D03*
X3628000Y349250D03*
X3611000Y349250D03*
D14*
X3803650Y278384D03*
X3803650Y216916D03*
X3790950Y278384D03*
X3778250Y278384D03*
X3790950Y216916D03*
X3778250Y216916D03*
X3765550Y278384D03*
X3765550Y216916D03*
X3879850Y278384D03*
X3879850Y216916D03*
X3867150Y278384D03*
X3854450Y278384D03*
X3867150Y216916D03*
X3854450Y216916D03*
X3841750Y278384D03*
X3841750Y216916D03*
X3702050Y303784D03*
X3702050Y242316D03*
X3689350Y303784D03*
X3676650Y303784D03*
X3689350Y242316D03*
X3676650Y242316D03*
X3663950Y303784D03*
X3663950Y242316D03*
X3625850Y303784D03*
X3625850Y242316D03*
X3613150Y303784D03*
X3600450Y303784D03*
X3613150Y242316D03*
X3600450Y242316D03*
X3587750Y303784D03*
X3587750Y242316D03*
X1949450Y603504D03*
X1949450Y542036D03*
X1936750Y603504D03*
X1924050Y603504D03*
X1936750Y542036D03*
X1924050Y542036D03*
X1911350Y603504D03*
X1911350Y542036D03*
X1898650Y603504D03*
X1898650Y542036D03*
X1885950Y603504D03*
X1873250Y603504D03*
X1885950Y542036D03*
X1873250Y542036D03*
X1860550Y603504D03*
X1860550Y542036D03*
D10*
X1721730Y595630D03*
X1704730Y595630D03*
X1576950Y596900D03*
X1559950Y596900D03*
D20*
X1066800Y780290D03*
X1066800Y811790D03*
D21*
X1043940Y723560D03*
X1043940Y744560D03*
D22*
X1043940Y681380D03*
X1043940Y700380D03*
D14*
X1592580Y544576D03*
X1592580Y606044D03*
X1605280Y544576D03*
X1617980Y544576D03*
X1605280Y606044D03*
X1617980Y606044D03*
X1630680Y544576D03*
X1630680Y606044D03*
X1643380Y544576D03*
X1643380Y606044D03*
X1656080Y544576D03*
X1668780Y544576D03*
X1656080Y606044D03*
X1668780Y606044D03*
X1681480Y544576D03*
X1681480Y606044D03*
X1739900Y542036D03*
X1739900Y603504D03*
X1752600Y542036D03*
X1765300Y542036D03*
X1752600Y603504D03*
X1765300Y603504D03*
X1778000Y542036D03*
X1778000Y603504D03*
X1790700Y542036D03*
X1790700Y603504D03*
X1803400Y542036D03*
X1816100Y542036D03*
X1803400Y603504D03*
X1816100Y603504D03*
X1828800Y542036D03*
X1828800Y603504D03*
D23*
X1080770Y679420D03*
X1080770Y707420D03*
X1080770Y758220D03*
X1080770Y730220D03*
M02*
